<svg preserveAspectRatio="none" width="100%" height="100%" overflow="visible" style="display: block;" viewBox="0 0 16 16" fill="none" xmlns="http://www.w3.org/2000/svg">
<g id="clipboard">
<path id="Vector" d="M11.349 2.02239L10.7126 1.85283C8.91267 1.37324 8.01267 1.13345 7.30367 1.54049C6.59464 1.94753 6.35349 2.84245 5.87119 4.63227L5.18911 7.16347C4.7068 8.95327 4.46565 9.8482 4.875 10.5532C5.28435 11.2583 6.18434 11.498 7.98433 11.9776L8.62073 12.1472C10.4207 12.6267 11.3207 12.8665 12.0297 12.4595C12.7387 12.0525 12.9799 11.1575 13.4621 9.36773L14.1442 6.83653C14.6265 5.0467 14.8677 4.15179 14.4583 3.44677C14.049 2.74176 13.149 2.50197 11.349 2.02239Z" stroke="var(--stroke-0, #687385)" stroke-width="1.125"/>
<path id="Vector_2" d="M11.2359 4.95538C11.2359 5.4981 10.7934 5.93806 10.2476 5.93806C9.70178 5.93806 9.25932 5.4981 9.25932 4.95538C9.25932 4.41266 9.70178 3.9727 10.2476 3.9727C10.7934 3.9727 11.2359 4.41266 11.2359 4.95538Z" stroke="var(--stroke-0, #687385)" stroke-width="1.125"/>
<path id="Vector_3" d="M8 13.9642L7.36513 14.1371C5.56935 14.6261 4.67148 14.8706 3.96413 14.4555C3.25678 14.0405 3.01619 13.1281 2.53502 11.3031L1.85455 8.72227C1.37337 6.89733 1.13279 5.98487 1.54118 5.26603C1.89445 4.64421 2.66667 4.66685 3.66667 4.66677" stroke="var(--stroke-0, #687385)" stroke-width="1.125" stroke-linecap="round"/>
</g>
</svg>
