<svg preserveAspectRatio="none" width="100%" height="100%" overflow="visible" style="display: block;" viewBox="0 0 18 18" fill="none" xmlns="http://www.w3.org/2000/svg">
<g id="link-square-02">
<path id="Vector" d="M8.32435 2.25009C5.58762 2.25502 4.15451 2.32222 3.23865 3.23823C2.25027 4.22676 2.25027 5.81778 2.25027 8.99978C2.25027 12.1818 2.25027 13.7729 3.23865 14.7614C4.22701 15.7499 5.81778 15.7499 8.99934 15.7499C12.1808 15.7499 13.7716 15.7499 14.7599 14.7614C15.6758 13.8454 15.743 12.412 15.7479 9.67485" stroke="var(--stroke-0, white)" stroke-width="1.5" stroke-linecap="round" stroke-linejoin="round"/>
<path id="Vector_2" d="M15.417 2.62209L8.28653 9.79395M15.417 2.62209C15.0465 2.25113 12.5507 2.28571 12.0231 2.29321M15.417 2.62209C15.7875 2.99305 15.7529 5.49205 15.7454 6.02035" stroke="var(--stroke-0, white)" stroke-width="1.5" stroke-linecap="round" stroke-linejoin="round"/>
</g>
</svg>
