<svg preserveAspectRatio="none" width="100%" height="100%" overflow="visible" style="display: block;" viewBox="0 0 31.5 34.8743" fill="none" xmlns="http://www.w3.org/2000/svg">
<g id="Group">
<path id="Vector" d="M20.25 6.75V9H18V6.75C18 5.55653 17.5259 4.41193 16.682 3.56802C15.8381 2.72411 14.6935 2.25 13.5 2.25C12.3065 2.25 11.1619 2.72411 10.318 3.56802C9.47411 4.41193 9 5.55653 9 6.75V9H6.75V6.75C6.75 4.95979 7.46116 3.2429 8.72703 1.97703C9.9929 0.711159 11.7098 0 13.5 0C15.2902 0 17.0071 0.711159 18.273 1.97703C19.5388 3.2429 20.25 4.95979 20.25 6.75Z" fill="url(#paint0_linear_1264_595)"/>
<path id="Vector_2" d="M27 13.5C27 12.0082 26.4074 10.5774 25.3525 9.52252C24.2976 8.46763 22.8668 7.875 21.375 7.875H5.625C4.13316 7.875 2.70242 8.46763 1.64752 9.52252C0.592632 10.5774 0 12.0082 0 13.5V24.75C0 26.2418 0.592632 27.6726 1.64752 28.7275C2.70242 29.7824 4.13316 30.375 5.625 30.375H21.375C22.8668 30.375 24.2976 29.7824 25.3525 28.7275C26.4074 27.6726 27 26.2418 27 24.75V13.5Z" fill="url(#paint1_linear_1264_595)"/>
<path id="Vector_3" d="M15.75 19.125C15.75 19.7217 15.5129 20.294 15.091 20.716C14.669 21.1379 14.0967 21.375 13.5 21.375C12.9033 21.375 12.331 21.1379 11.909 20.716C11.4871 20.294 11.25 19.7217 11.25 19.125C11.25 18.5283 11.4871 17.956 11.909 17.534C12.331 17.1121 12.9033 16.875 13.5 16.875C14.0967 16.875 14.669 17.1121 15.091 17.534C15.5129 17.956 15.75 18.5283 15.75 19.125Z" fill="url(#paint2_radial_1264_595)"/>
<path id="Vector_4" d="M27 13.5C27 12.0082 26.4074 10.5774 25.3525 9.52252C24.2976 8.46763 22.8668 7.875 21.375 7.875H5.625C4.13316 7.875 2.70242 8.46763 1.64752 9.52252C0.592632 10.5774 0 12.0082 0 13.5V24.75C0 26.2418 0.592632 27.6726 1.64752 28.7275C2.70242 29.7824 4.13316 30.375 5.625 30.375H21.375C22.8668 30.375 24.2976 29.7824 25.3525 28.7275C26.4074 27.6726 27 26.2418 27 24.75V13.5Z" fill="url(#paint3_radial_1264_595)"/>
<path id="Vector_5" d="M24.48 14.985C25.623 16.182 27.819 18.0878 30.519 18.477C30.7849 18.5112 31.0299 18.6393 31.2097 18.8381C31.3896 19.037 31.4925 19.2935 31.5 19.5615V24.7883C31.5 31.8128 25.236 34.362 23.8815 34.83C23.7156 34.8891 23.5344 34.8891 23.3685 34.83C22.0162 34.362 15.75 31.815 15.75 24.7883V19.5615C15.7575 19.2935 15.8604 19.037 16.0403 18.8381C16.2201 18.6393 16.4651 18.5112 16.731 18.477C19.431 18.0878 21.6248 16.182 22.7678 14.9828C22.8797 14.8691 23.0132 14.7789 23.1604 14.7174C23.3075 14.6558 23.4655 14.6241 23.625 14.6241C23.7845 14.6241 23.9425 14.6558 24.0896 14.7174C24.2368 14.7789 24.3703 14.8691 24.4822 14.9828" fill="url(#paint4_linear_1264_595)"/>
</g>
<defs>
<linearGradient id="paint0_linear_1264_595" x1="9.6435" y1="-1.719" x2="19.512" y2="15.0885" gradientUnits="userSpaceOnUse">
<stop stop-color="#FFC205"/>
<stop offset="1" stop-color="#FB5937"/>
</linearGradient>
<linearGradient id="paint1_linear_1264_595" x1="28.9282" y1="31.7812" x2="5.409" y2="8.784" gradientUnits="userSpaceOnUse">
<stop stop-color="#FF6F47"/>
<stop offset="1" stop-color="#FFCD0F"/>
</linearGradient>
<radialGradient id="paint2_radial_1264_595" cx="0" cy="0" r="1" gradientTransform="matrix(-2.24993 -7.875 10.9266 -3.12181 14.625 21.375)" gradientUnits="userSpaceOnUse">
<stop stop-color="#944600"/>
<stop offset="1" stop-color="#CD8E02"/>
</radialGradient>
<radialGradient id="paint3_radial_1264_595" cx="0" cy="0" r="1" gradientUnits="userSpaceOnUse" gradientTransform="translate(22.181 25.6889) rotate(157.947) scale(12.4848 13.2162)">
<stop stop-color="#EB4824"/>
<stop offset="0.99" stop-color="#EB4824" stop-opacity="0"/>
</radialGradient>
<linearGradient id="paint4_linear_1264_595" x1="18.7043" y1="14.625" x2="34.1235" y2="31.833" gradientUnits="userSpaceOnUse">
<stop stop-color="#62BE55"/>
<stop offset="1" stop-color="#1E794A"/>
</linearGradient>
</defs>
</svg>
