<svg preserveAspectRatio="none" width="100%" height="100%" overflow="visible" style="display: block;" viewBox="0 0 36 36" fill="none" xmlns="http://www.w3.org/2000/svg">
<g id="fluent:mic-record-24-filled">
<path id="Vector" d="M16.5 26.25C16.5 27.894 16.9065 29.4435 17.625 30.8025V31.875C17.6249 32.16 17.5166 32.4344 17.322 32.6427C17.1274 32.851 16.8611 32.9776 16.5767 32.997C16.2923 33.0165 16.0112 32.9272 15.7901 32.7474C15.5689 32.5675 15.4244 32.3104 15.3855 32.028L15.375 31.875V28.473C12.8873 28.2883 10.5553 27.1916 8.82632 25.3934C7.09732 23.5952 6.09302 21.2221 6.006 18.729L6 18.375V17.625C6.00009 17.34 6.10837 17.0656 6.30296 16.8573C6.49755 16.649 6.76395 16.5224 7.04832 16.503C7.33269 16.4835 7.61384 16.5728 7.83495 16.7526C8.05606 16.9325 8.20065 17.1896 8.2395 17.472L8.25 17.625V18.375C8.24983 20.4076 9.03558 22.3615 10.4429 23.8281C11.8502 25.2947 13.7701 26.1604 15.801 26.244L16.125 26.25H16.5ZM16.7625 23.994C17.1194 22.4968 17.8252 21.1052 18.8223 19.9326C19.8194 18.7601 21.0796 17.8399 22.5 17.247V9C22.5 7.4087 21.8679 5.88258 20.7426 4.75736C19.6174 3.63214 18.0913 3 16.5 3C14.9087 3 13.3826 3.63214 12.2574 4.75736C11.1321 5.88258 10.5 7.4087 10.5 9V18C10.5 18.81 10.6641 19.6116 10.9823 20.3565C11.3004 21.1014 11.7661 21.7742 12.3513 22.3343C12.9365 22.8944 13.629 23.3302 14.3871 23.6154C15.1452 23.9007 15.9533 24.0294 16.7625 23.994ZM30 26.25C30 27.2446 29.6049 28.1984 28.9017 28.9017C28.1984 29.6049 27.2446 30 26.25 30C25.2554 30 24.3016 29.6049 23.5983 28.9017C22.8951 28.1984 22.5 27.2446 22.5 26.25C22.5 25.2554 22.8951 24.3016 23.5983 23.5983C24.3016 22.8951 25.2554 22.5 26.25 22.5C27.2446 22.5 28.1984 22.8951 28.9017 23.5983C29.6049 24.3016 30 25.2554 30 26.25ZM34.5 26.25C34.5 28.438 33.6308 30.5365 32.0836 32.0836C30.5365 33.6308 28.438 34.5 26.25 34.5C24.062 34.5 21.9635 33.6308 20.4164 32.0836C18.8692 30.5365 18 28.438 18 26.25C18 24.062 18.8692 21.9635 20.4164 20.4164C21.9635 18.8692 24.062 18 26.25 18C28.438 18 30.5365 18.8692 32.0836 20.4164C33.6308 21.9635 34.5 24.062 34.5 26.25ZM20.25 26.25C20.25 27.8413 20.8821 29.3674 22.0074 30.4926C23.1326 31.6179 24.6587 32.25 26.25 32.25C27.8413 32.25 29.3674 31.6179 30.4926 30.4926C31.6179 29.3674 32.25 27.8413 32.25 26.25C32.25 24.6587 31.6179 23.1326 30.4926 22.0074C29.3674 20.8821 27.8413 20.25 26.25 20.25C24.6587 20.25 23.1326 20.8821 22.0074 22.0074C20.8821 23.1326 20.25 24.6587 20.25 26.25Z" fill="url(#paint0_linear_1264_603)"/>
</g>
<defs>
<linearGradient id="paint0_linear_1264_603" x1="11.3458" y1="3.00145" x2="34.6765" y2="33.29" gradientUnits="userSpaceOnUse">
<stop stop-color="#62BE55"/>
<stop offset="1" stop-color="#1E794A"/>
</linearGradient>
</defs>
</svg>
